STARTFONT 2.1
COMMENT ======================================================================
COMMENT  This is the Goha WP font hacked for Linux consoles by Daniel Yacob for
COMMENT  Goha-12.psf.
COMMENT 
COMMENT  Yitna Firdiywek of GohaTibeb Associates has placed the Goha WP package
COMMENT  and these fonts into the publice domain under the GNU General Public
COMMENT  License vs 2.0 :-  ybf2u@virginia.edu
COMMENT 
COMMENT  Available at:  ftp://ftp.cs.indiana.edu/pub/fidel/fonts/linux/
COMMENT ======================================================================
FONT -AmharicWP-ZemenFixed-Medium-R-Normal--12-150-100-100-M-120-Ethiopic-Unicode
SIZE 12 100 100
FONTBOUNDINGBOX 8 16 0 -2
STARTPROPERTIES 5
COPYRIGHT "GNU GPL 2.0"
DEFAULT_CHAR 318
FONT_ASCENT 6
FONT_DESCENT 2
_XMBDFED_INFO "Edited with xmbdfed 4.3."
ENDPROPERTIES
CHARS 360
STARTCHAR a1c4
ENCODING 4608
SWIDTH 480 0
DWIDTH 8 0
BBX 6 12 0 1
BITMAP
0C
CC
CC
CC
CC
CC
CC
CC
CC
CC
7C
38
ENDCHAR
STARTCHAR a1c5
ENCODING 4609
SWIDTH 480 0
DWIDTH 8 0
BBX 8 12 0 1
BITMAP
0C
CC
CC
CC
CF
CF
CC
CC
CC
CC
7C
38
ENDCHAR
STARTCHAR a1c7
ENCODING 4610
SWIDTH 480 0
DWIDTH 8 0
BBX 7 13 0 0
BITMAP
0C
CC
CC
CC
CC
7C
0C
08
18
18
30
3E
06
ENDCHAR
STARTCHAR a1c7
ENCODING 4611
SWIDTH 480 0
DWIDTH 8 0
BBX 6 12 1 0
BITMAP
0C
CC
CC
CC
CC
7C
0C
08
18
18
18
18
ENDCHAR
STARTCHAR a1c8
ENCODING 4612
SWIDTH 480 0
DWIDTH 8 0
BBX 7 13 0 0
BITMAP
0C
CC
CC
CC
CC
7C
0C
18
18
36
26
36
1C
ENDCHAR
STARTCHAR a1dc
ENCODING 4613
SWIDTH 480 0
DWIDTH 8 0
BBX 7 12 0 1
BITMAP
06
C6
C6
C6
66
66
66
66
66
66
3E
1C
ENDCHAR
STARTCHAR a1e1
ENCODING 4614
SWIDTH 480 0
DWIDTH 8 0
BBX 8 12 0 1
BITMAP
07
CD
CD
CF
CC
CC
CC
CC
CC
CC
7C
38
ENDCHAR
STARTCHAR 013e
ENCODING 4615
SWIDTH 480 0
DWIDTH 8 0
BBX 0 0 0 0
BITMAP
ENDCHAR
STARTCHAR a1e3
ENCODING 4616
SWIDTH 480 0
DWIDTH 8 0
BBX 6 12 0 1
BITMAP
30
30
60
60
F8
CC
CC
CC
CC
CC
CC
CC
ENDCHAR
STARTCHAR a1e4
ENCODING 4617
SWIDTH 480 0
DWIDTH 8 0
BBX 8 12 0 1
BITMAP
30
30
60
60
F8
CC
CC
CF
CD
CC
CC
CC
ENDCHAR
STARTCHAR a1e5
ENCODING 4618
SWIDTH 480 0
DWIDTH 8 0
BBX 8 13 0 0
BITMAP
30
30
60
60
F8
CC
CC
CC
CC
CC
CC
CF
03
ENDCHAR
STARTCHAR a1e6
ENCODING 4619
SWIDTH 480 0
DWIDTH 8 0
BBX 6 12 0 1
BITMAP
30
30
60
60
F8
CC
CC
CC
CC
0C
0C
0C
ENDCHAR
STARTCHAR a1e7
ENCODING 4620
SWIDTH 480 0
DWIDTH 8 0
BBX 8 12 0 1
BITMAP
30
30
60
60
F8
CC
CC
CC
CE
CD
CD
CF
ENDCHAR
STARTCHAR a1e8
ENCODING 4621
SWIDTH 480 0
DWIDTH 8 0
BBX 7 11 0 1
BITMAP
30
30
70
78
CC
C4
C6
E6
D6
D6
66
ENDCHAR
STARTCHAR a1e9
ENCODING 4622
SWIDTH 480 0
DWIDTH 8 0
BBX 8 12 0 1
BITMAP
30
30
60
60
F0
D8
DF
DD
DF
D8
D8
D8
ENDCHAR
STARTCHAR a1ea
ENCODING 4623
SWIDTH 480 0
DWIDTH 8 0
BBX 8 13 0 0
BITMAP
30
30
60
60
F8
CC
CC
CC
CC
0C
0C
33
33
ENDCHAR
STARTCHAR a1a2
ENCODING 4624
SWIDTH 480 0
DWIDTH 8 0
BBX 8 12 0 1
BITMAP
18
18
18
18
7E
DB
DB
DB
DB
DB
DB
DB
ENDCHAR
STARTCHAR a1a3
ENCODING 4625
SWIDTH 480 0
DWIDTH 8 0
BBX 8 12 0 1
BITMAP
30
30
30
30
78
D4
D4
D4
D7
D5
D4
D4
ENDCHAR
STARTCHAR a1a4
ENCODING 4626
SWIDTH 480 0
DWIDTH 8 0
BBX 8 12 0 1
BITMAP
30
30
30
30
78
B4
B4
B4
B4
B4
B7
03
ENDCHAR
STARTCHAR a1a5
ENCODING 4627
SWIDTH 480 0
DWIDTH 8 0
BBX 8 12 0 1
BITMAP
18
18
18
7E
DB
DB
DB
DB
DB
03
03
03
ENDCHAR
STARTCHAR a1a6
ENCODING 4628
SWIDTH 480 0
DWIDTH 8 0
BBX 8 12 0 1
BITMAP
30
30
30
30
78
B4
B4
B4
B4
B7
B5
B7
ENDCHAR
STARTCHAR a1a7
ENCODING 4629
SWIDTH 480 0
DWIDTH 8 0
BBX 8 13 0 0
BITMAP
60
60
60
78
18
7E
DB
DB
DB
DB
DB
DB
DB
ENDCHAR
STARTCHAR a1a8
ENCODING 4630
SWIDTH 480 0
DWIDTH 8 0
BBX 8 13 0 0
BITMAP
18
18
18
7E
DB
DB
DB
DB
DB
DB
C0
C0
C0
ENDCHAR
STARTCHAR HWa
ENCODING 4631
SWIDTH 480 0
DWIDTH 8 0
BBX 8 12 0 -2
BITMAP
10
10
10
10
38
7C
D6
D6
D6
06
1B
33
ENDCHAR
STARTCHAR a1eb
ENCODING 4632
SWIDTH 480 0
DWIDTH 8 0
BBX 7 11 0 1
BITMAP
1C
6A
AA
AA
AA
AA
AA
AA
AA
A4
40
ENDCHAR
STARTCHAR a1ec
ENCODING 4633
SWIDTH 480 0
DWIDTH 8 0
BBX 8 11 0 1
BITMAP
1C
6A
AA
AA
AB
AA
AA
AA
AA
A4
40
ENDCHAR
STARTCHAR a1ed
ENCODING 4634
SWIDTH 480 0
DWIDTH 8 0
BBX 8 12 0 1
BITMAP
1C
6A
AA
AA
AA
AA
AE
A2
42
02
03
01
ENDCHAR
STARTCHAR a1ee
ENCODING 4635
SWIDTH 480 0
DWIDTH 8 0
BBX 7 12 0 1
BITMAP
1C
6A
AA
AA
AA
AA
AE
A2
42
02
02
02
ENDCHAR
STARTCHAR a1ef
ENCODING 4636
SWIDTH 480 0
DWIDTH 8 0
BBX 8 12 0 1
BITMAP
1C
6A
AA
AA
AA
AA
AE
A2
42
03
03
03
ENDCHAR
STARTCHAR a1f0
ENCODING 4637
SWIDTH 480 0
DWIDTH 8 0
BBX 7 12 0 1
BITMAP
1C
6A
AA
AA
AA
AA
A4
E0
20
20
40
40
ENDCHAR
STARTCHAR a1f1
ENCODING 4638
SWIDTH 480 0
DWIDTH 8 0
BBX 7 12 0 1
BITMAP
1C
6A
AA
AA
AA
AA
A4
E0
20
20
20
20
ENDCHAR
STARTCHAR a1ba
ENCODING 4639
SWIDTH 480 0
DWIDTH 8 0
BBX 8 13 0 1
BITMAP
1C
6A
AA
AA
AA
AA
AE
A2
42
02
02
0F
01
ENDCHAR
STARTCHAR a1ab
ENCODING 4640
SWIDTH 480 0
DWIDTH 8 0
BBX 8 11 0 2
BITMAP
DB
DB
DB
DB
DB
DB
DB
DB
DB
DB
7E
ENDCHAR
STARTCHAR a1ac
ENCODING 4641
SWIDTH 480 0
DWIDTH 8 0
BBX 8 11 0 2
BITMAP
B4
B4
B4
B4
B4
B7
B5
B4
B4
B4
78
ENDCHAR
STARTCHAR a1ad
ENCODING 4642
SWIDTH 480 0
DWIDTH 8 0
BBX 8 12 0 1
BITMAP
B4
B4
B4
B4
B4
7C
0C
0C
0C
0C
0F
03
ENDCHAR
STARTCHAR a1ae
ENCODING 4643
SWIDTH 480 0
DWIDTH 8 0
BBX 8 12 0 1
BITMAP
DB
DB
DB
DB
7F
03
03
03
03
03
03
03
ENDCHAR
STARTCHAR a1af
ENCODING 4644
SWIDTH 480 0
DWIDTH 8 0
BBX 8 12 0 1
BITMAP
B4
B4
B4
B4
B4
7C
0C
0C
0C
0F
0D
0F
ENDCHAR
STARTCHAR a1b0
ENCODING 4645
SWIDTH 480 0
DWIDTH 8 0
BBX 8 12 0 1
BITMAP
15
15
15
15
15
1E
10
10
20
20
80
80
ENDCHAR
STARTCHAR a1b1
ENCODING 4646
SWIDTH 480 0
DWIDTH 8 0
BBX 8 12 0 1
BITMAP
DB
DB
DB
DB
7E
18
30
30
60
60
C0
C0
ENDCHAR
STARTCHAR sWa
ENCODING 4647
SWIDTH 480 0
DWIDTH 8 0
BBX 8 12 0 -2
BITMAP
D6
D6
D6
D6
FE
66
04
0C
0C
0C
37
63
ENDCHAR
STARTCHAR a1f9
ENCODING 4648
SWIDTH 480 0
DWIDTH 8 0
BBX 8 11 0 1
BITMAP
18
18
30
30
60
60
C0
C0
C0
7F
03
ENDCHAR
STARTCHAR a1fa
ENCODING 4649
SWIDTH 480 0
DWIDTH 8 0
BBX 8 11 0 1
BITMAP
18
18
30
30
60
60
C0
C0
7F
1B
18
ENDCHAR
STARTCHAR a1fb
ENCODING 4650
SWIDTH 480 0
DWIDTH 8 0
BBX 8 11 0 1
BITMAP
18
18
30
30
60
60
C0
C6
C3
E3
7E
ENDCHAR
STARTCHAR a1fc
ENCODING 4651
SWIDTH 480 0
DWIDTH 8 0
BBX 8 11 0 1
BITMAP
18
18
30
30
60
60
C7
CD
CC
CC
78
ENDCHAR
STARTCHAR a1fe
ENCODING 4652
SWIDTH 480 0
DWIDTH 8 0
BBX 8 11 0 1
BITMAP
18
18
30
30
60
60
C0
C6
C9
79
06
ENDCHAR
STARTCHAR a2a1
ENCODING 4653
SWIDTH 480 0
DWIDTH 8 0
BBX 7 11 0 1
BITMAP
3E
66
C2
C0
C0
C0
C0
C0
C0
7E
06
ENDCHAR
STARTCHAR a2a3
ENCODING 4654
SWIDTH 480 0
DWIDTH 8 0
BBX 8 12 0 1
BITMAP
06
3D
65
C7
C0
C0
C0
C0
C0
C0
7E
06
ENDCHAR
STARTCHAR a1bb
ENCODING 4655
SWIDTH 480 0
DWIDTH 8 0
BBX 8 12 0 1
BITMAP
42
7E
18
30
30
60
60
C7
CD
CC
CC
78
ENDCHAR
STARTCHAR a1f2
ENCODING 4656
SWIDTH 480 0
DWIDTH 8 0
BBX 6 12 0 1
BITMAP
30
30
30
7C
CC
CC
CC
CC
CC
CC
CC
CC
ENDCHAR
STARTCHAR a1f3
ENCODING 4657
SWIDTH 480 0
DWIDTH 8 0
BBX 8 12 0 1
BITMAP
30
30
30
7C
CC
CC
CF
CF
CC
CC
CC
CC
ENDCHAR
STARTCHAR a1f4
ENCODING 4658
SWIDTH 480 0
DWIDTH 8 0
BBX 8 13 0 0
BITMAP
30
30
30
7C
CC
CC
CC
CC
CC
CC
CC
CF
03
ENDCHAR
STARTCHAR a1f5
ENCODING 4659
SWIDTH 480 0
DWIDTH 8 0
BBX 6 12 0 1
BITMAP
30
30
30
7C
CC
CC
CC
CC
CC
0C
0C
0C
ENDCHAR
STARTCHAR a1f6
ENCODING 4660
SWIDTH 480 0
DWIDTH 8 0
BBX 8 12 0 1
BITMAP
30
30
30
7C
CC
CC
CC
CC
CC
CF
CD
CF
ENDCHAR
STARTCHAR a1f7
ENCODING 4661
SWIDTH 480 0
DWIDTH 8 0
BBX 6 12 0 1
BITMAP
60
60
30
7C
CC
CC
CC
CC
CC
CC
CC
CC
ENDCHAR
STARTCHAR a1f8
ENCODING 4662
SWIDTH 480 0
DWIDTH 8 0
BBX 6 12 0 1
BITMAP
30
30
30
7C
CC
CC
CC
CC
CC
C0
C0
C0
ENDCHAR
STARTCHAR 0036
ENCODING 4663
SWIDTH 480 0
DWIDTH 8 0
BBX 7 11 0 -1
BITMAP
30
30
78
CC
CC
CC
CC
0C
0C
3E
22
ENDCHAR
STARTCHAR a2a4
ENCODING 4664
SWIDTH 480 0
DWIDTH 8 0
BBX 6 12 0 1
BITMAP
FC
B4
30
7C
CC
CC
CC
CC
CC
CC
CC
CC
ENDCHAR
STARTCHAR a2a5
ENCODING 4665
SWIDTH 480 0
DWIDTH 8 0
BBX 8 12 0 1
BITMAP
FC
B4
30
7C
CC
CC
CF
CF
CC
CC
CC
CC
ENDCHAR
STARTCHAR a2a6
ENCODING 4666
SWIDTH 480 0
DWIDTH 8 0
BBX 8 13 0 0
BITMAP
FC
B4
30
7C
CC
CC
CC
CC
CC
CC
CC
CF
03
ENDCHAR
STARTCHAR a2a7
ENCODING 4667
SWIDTH 480 0
DWIDTH 8 0
BBX 6 12 0 1
BITMAP
FC
B4
30
7C
CC
CC
CC
CC
CC
0C
0C
0C
ENDCHAR
STARTCHAR a1c6
ENCODING 4668
SWIDTH 480 0
DWIDTH 8 0
BBX 8 11 0 1
BITMAP
FC
B4
30
78
CC
CC
CC
CC
CF
C9
CF
ENDCHAR
STARTCHAR a2a8
ENCODING 4669
SWIDTH 480 0
DWIDTH 8 0
BBX 7 12 0 1
BITMAP
FE
B2
18
3E
66
66
66
66
66
66
66
66
ENDCHAR
STARTCHAR a2a9
ENCODING 4670
SWIDTH 480 0
DWIDTH 8 0
BBX 6 12 0 1
BITMAP
FC
B4
30
7C
CC
CC
CC
CC
C0
C0
C0
C0
ENDCHAR
STARTCHAR a1bd
ENCODING 4671
SWIDTH 480 0
DWIDTH 8 0
BBX 8 11 0 1
BITMAP
FC
B4
30
78
CC
CC
CC
0C
0C
3F
21
ENDCHAR
STARTCHAR a2aa
ENCODING 4672
SWIDTH 480 0
DWIDTH 8 0
BBX 8 12 0 1
BITMAP
18
18
18
7E
DB
DB
DB
7E
18
18
18
18
ENDCHAR
STARTCHAR a2ab
ENCODING 4673
SWIDTH 480 0
DWIDTH 8 0
BBX 8 12 0 1
BITMAP
18
18
18
7E
DB
DB
DB
7E
18
1F
1B
18
ENDCHAR
STARTCHAR a2ac
ENCODING 4674
SWIDTH 480 0
DWIDTH 8 0
BBX 8 12 0 1
BITMAP
18
18
18
7E
DB
DB
DB
7E
18
18
0F
03
ENDCHAR
STARTCHAR a2ad
ENCODING 4675
SWIDTH 480 0
DWIDTH 8 0
BBX 8 12 0 1
BITMAP
18
18
18
7E
DB
DB
DB
7E
18
30
E0
C0
ENDCHAR
STARTCHAR a2ae
ENCODING 4676
SWIDTH 480 0
DWIDTH 8 0
BBX 8 13 0 0
BITMAP
18
18
18
7E
DB
DB
DB
7E
18
1E
1B
1B
0E
ENDCHAR
STARTCHAR a2af
ENCODING 4677
SWIDTH 480 0
DWIDTH 8 0
BBX 8 12 0 1
BITMAP
60
60
18
18
7E
DB
DB
DB
7E
18
18
18
ENDCHAR
STARTCHAR a2b0
ENCODING 4678
SWIDTH 480 0
DWIDTH 8 0
BBX 8 13 0 0
BITMAP
18
24
24
18
7E
DB
DB
DB
7E
18
18
18
18
ENDCHAR
STARTCHAR 013e
ENCODING 4679
SWIDTH 480 0
DWIDTH 8 0
BBX 0 0 0 0
BITMAP
ENDCHAR
STARTCHAR 0046
ENCODING 4680
SWIDTH 480 0
DWIDTH 8 0
BBX 8 11 0 -1
BITMAP
18
18
18
7E
DB
DB
7E
1F
1D
1F
18
ENDCHAR
STARTCHAR 0047
ENCODING 4682
SWIDTH 480 0
DWIDTH 8 0
BBX 8 11 0 -1
BITMAP
10
11
11
7D
D7
D7
7C
10
10
10
10
ENDCHAR
STARTCHAR a2b1
ENCODING 4683
SWIDTH 480 0
DWIDTH 8 0
BBX 8 13 0 0
BITMAP
18
18
18
7E
DB
DB
DB
7E
18
18
7E
C3
03
ENDCHAR
STARTCHAR 0049
ENCODING 4684
SWIDTH 480 0
DWIDTH 8 0
BBX 8 11 0 -1
BITMAP
18
18
18
7E
DB
DB
7E
18
1E
1A
7E
ENDCHAR
STARTCHAR 004a
ENCODING 4685
SWIDTH 480 0
DWIDTH 8 0
BBX 8 11 0 -1
BITMAP
10
10
10
7C
D7
D7
7D
11
11
10
10
ENDCHAR
STARTCHAR 013e
ENCODING 4686
SWIDTH 480 0
DWIDTH 8 0
BBX 0 0 0 0
BITMAP
ENDCHAR
STARTCHAR 013e
ENCODING 4687
SWIDTH 480 0
DWIDTH 8 0
BBX 0 0 0 0
BITMAP
ENDCHAR
STARTCHAR a1d8
ENCODING 4688
SWIDTH 480 0
DWIDTH 8 0
BBX 8 12 0 1
BITMAP
81
7E
18
18
7E
DB
DB
DB
7E
18
18
18
ENDCHAR
STARTCHAR a1d9
ENCODING 4689
SWIDTH 480 0
DWIDTH 8 0
BBX 8 13 0 0
BITMAP
81
7E
18
18
7E
DB
DB
DB
7E
18
1F
1B
18
ENDCHAR
STARTCHAR a1da
ENCODING 4690
SWIDTH 480 0
DWIDTH 8 0
BBX 8 12 0 1
BITMAP
81
7E
18
18
7E
DB
DB
DB
7E
18
0F
03
ENDCHAR
STARTCHAR a1dd
ENCODING 4691
SWIDTH 480 0
DWIDTH 8 0
BBX 8 13 0 0
BITMAP
81
7E
18
18
7E
DB
DB
DB
7E
18
30
E0
C0
ENDCHAR
STARTCHAR a1de
ENCODING 4692
SWIDTH 480 0
DWIDTH 8 0
BBX 8 13 0 0
BITMAP
81
7E
18
18
7E
DB
DB
DB
7E
18
1E
1B
0E
ENDCHAR
STARTCHAR a1df
ENCODING 4693
SWIDTH 480 0
DWIDTH 8 0
BBX 8 13 0 0
BITMAP
90
60
60
78
18
7E
DB
DB
DB
7E
18
18
18
ENDCHAR
STARTCHAR a1e0
ENCODING 4694
SWIDTH 480 0
DWIDTH 8 0
BBX 8 13 0 0
BITMAP
24
18
24
24
18
7E
DB
DB
DB
7E
18
18
18
ENDCHAR
STARTCHAR 013e
ENCODING 4695
SWIDTH 480 0
DWIDTH 8 0
BBX 0 0 0 0
BITMAP
ENDCHAR
STARTCHAR 0052
ENCODING 4696
SWIDTH 480 0
DWIDTH 8 0
BBX 8 11 0 -1
BITMAP
7E
18
18
7E
DB
DB
7E
1F
1D
1F
18
ENDCHAR
STARTCHAR 0053
ENCODING 4698
SWIDTH 480 0
DWIDTH 8 0
BBX 8 11 0 -1
BITMAP
7E
19
19
7F
DB
DB
7E
18
18
18
18
ENDCHAR
STARTCHAR a1fd
ENCODING 4699
SWIDTH 480 0
DWIDTH 8 0
BBX 8 13 0 0
BITMAP
24
18
18
7E
DB
DB
DB
7E
18
18
7E
C3
03
ENDCHAR
STARTCHAR 0055
ENCODING 4700
SWIDTH 480 0
DWIDTH 8 0
BBX 8 11 0 -1
BITMAP
7E
18
18
7E
DB
DB
7E
18
1E
1A
7E
ENDCHAR
STARTCHAR 0056
ENCODING 4701
SWIDTH 480 0
DWIDTH 8 0
BBX 8 11 0 -1
BITMAP
7E
18
18
7E
DB
DB
7F
19
19
18
18
ENDCHAR
STARTCHAR 013e
ENCODING 4702
SWIDTH 480 0
DWIDTH 8 0
BBX 0 0 0 0
BITMAP
ENDCHAR
STARTCHAR 013e
ENCODING 4703
SWIDTH 480 0
DWIDTH 8 0
BBX 0 0 0 0
BITMAP
ENDCHAR
STARTCHAR a2b2
ENCODING 4704
SWIDTH 480 0
DWIDTH 8 0
BBX 6 11 0 1
BITMAP
78
CC
CC
CC
CC
CC
CC
CC
CC
CC
CC
ENDCHAR
STARTCHAR a2b3
ENCODING 4705
SWIDTH 480 0
DWIDTH 8 0
BBX 8 11 0 1
BITMAP
78
CC
CC
CC
CC
CF
CF
CC
CC
CC
CC
ENDCHAR
STARTCHAR a2b4
ENCODING 4706
SWIDTH 480 0
DWIDTH 8 0
BBX 8 12 0 0
BITMAP
78
CC
CC
CC
CC
CC
CC
CC
CC
CC
CF
03
ENDCHAR
STARTCHAR a2b5
ENCODING 4707
SWIDTH 480 0
DWIDTH 8 0
BBX 6 11 0 1
BITMAP
78
CC
CC
CC
CC
CC
CC
0C
0C
0C
0C
ENDCHAR
STARTCHAR a2b6
ENCODING 4708
SWIDTH 480 0
DWIDTH 8 0
BBX 8 11 0 1
BITMAP
78
CC
CC
CC
CC
CC
CC
CF
CD
CD
CF
ENDCHAR
STARTCHAR a2b7
ENCODING 4709
SWIDTH 480 0
DWIDTH 8 0
BBX 8 11 0 1
BITMAP
1E
33
33
33
F3
F3
33
33
33
33
33
ENDCHAR
STARTCHAR a2b8
ENCODING 4710
SWIDTH 480 0
DWIDTH 8 0
BBX 6 11 0 1
BITMAP
78
CC
CC
CC
CC
CC
CC
CC
C0
C0
C0
ENDCHAR
STARTCHAR a2b9
ENCODING 4711
SWIDTH 480 0
DWIDTH 8 0
BBX 8 12 0 0
BITMAP
78
CC
CC
CC
CC
CC
CC
0C
0C
3C
33
03
ENDCHAR
STARTCHAR a1b2
ENCODING 4712
SWIDTH 480 0
DWIDTH 8 0
BBX 6 13 0 1
BITMAP
84
FC
00
78
CC
CC
CC
CC
CC
CC
CC
CC
CC
ENDCHAR
STARTCHAR a1b3
ENCODING 4713
SWIDTH 480 0
DWIDTH 8 0
BBX 8 13 0 1
BITMAP
84
FC
00
78
CC
CC
CC
CF
CD
CC
CC
CC
CC
ENDCHAR
STARTCHAR a1b4
ENCODING 4714
SWIDTH 480 0
DWIDTH 8 0
BBX 8 13 0 1
BITMAP
84
FC
00
78
CC
CC
CC
CC
CC
CC
CC
CF
03
ENDCHAR
STARTCHAR a1b5
ENCODING 4715
SWIDTH 480 0
DWIDTH 8 0
BBX 6 12 0 1
BITMAP
84
FC
00
78
CC
CC
CC
CC
CC
0C
0C
0C
ENDCHAR
STARTCHAR a3e1
ENCODING 4716
SWIDTH 480 0
DWIDTH 8 0
BBX 8 13 0 1
BITMAP
84
FC
00
78
CC
CC
CC
CC
CC
CC
CF
CD
CF
ENDCHAR
STARTCHAR a3e2
ENCODING 4717
SWIDTH 480 0
DWIDTH 8 0
BBX 8 13 0 1
BITMAP
21
3F
00
1E
33
33
33
F3
B3
33
33
33
33
ENDCHAR
STARTCHAR a3e3
ENCODING 4718
SWIDTH 480 0
DWIDTH 8 0
BBX 6 13 0 1
BITMAP
84
FC
00
78
CC
CC
CC
CC
CC
CC
C0
C0
C0
ENDCHAR
STARTCHAR a2ba
ENCODING 4720
SWIDTH 480 0
DWIDTH 8 0
BBX 8 12 0 1
BITMAP
18
18
18
18
FF
DB
18
18
18
18
18
18
ENDCHAR
STARTCHAR a2bb
ENCODING 4721
SWIDTH 480 0
DWIDTH 8 0
BBX 8 12 0 1
BITMAP
18
18
18
18
FF
DB
18
18
1F
1B
18
18
ENDCHAR
STARTCHAR a2bc
ENCODING 4722
SWIDTH 480 0
DWIDTH 8 0
BBX 8 12 0 1
BITMAP
18
18
18
18
FF
DB
18
18
18
18
1F
03
ENDCHAR
STARTCHAR a2bd
ENCODING 4723
SWIDTH 480 0
DWIDTH 8 0
BBX 8 12 0 1
BITMAP
18
18
18
FF
DB
18
18
18
30
60
C0
C0
ENDCHAR
STARTCHAR a2be
ENCODING 4724
SWIDTH 480 0
DWIDTH 8 0
BBX 8 12 0 1
BITMAP
18
18
18
18
FF
DB
18
18
1E
1B
1B
0E
ENDCHAR
STARTCHAR a2bf
ENCODING 4725
SWIDTH 480 0
DWIDTH 8 0
BBX 8 12 0 1
BITMAP
60
60
38
18
18
FF
DB
18
18
18
18
18
ENDCHAR
STARTCHAR a2c0
ENCODING 4726
SWIDTH 480 0
DWIDTH 8 0
BBX 8 12 0 1
BITMAP
18
24
24
18
18
FF
DB
18
18
18
18
18
ENDCHAR
STARTCHAR a2c1
ENCODING 4727
SWIDTH 480 0
DWIDTH 8 0
BBX 8 13 0 0
BITMAP
18
18
18
18
FF
DB
18
18
18
18
7E
C3
03
ENDCHAR
STARTCHAR a2c3
ENCODING 4728
SWIDTH 480 0
DWIDTH 8 0
BBX 8 12 0 1
BITMAP
C3
FF
DB
18
18
FF
DB
18
18
18
18
18
ENDCHAR
STARTCHAR a2c4
ENCODING 4729
SWIDTH 480 0
DWIDTH 8 0
BBX 8 12 0 1
BITMAP
C3
FF
DB
18
18
FF
DB
18
1F
1B
18
18
ENDCHAR
STARTCHAR a2c5
ENCODING 4730
SWIDTH 480 0
DWIDTH 8 0
BBX 8 13 0 0
BITMAP
C3
FF
DB
18
18
FF
DB
18
18
18
18
0F
03
ENDCHAR
STARTCHAR a2c6
ENCODING 4731
SWIDTH 480 0
DWIDTH 8 0
BBX 8 13 0 0
BITMAP
C3
FF
DB
18
18
FF
DB
18
18
30
60
C0
C0
ENDCHAR
STARTCHAR a2c7
ENCODING 4732
SWIDTH 480 0
DWIDTH 8 0
BBX 8 13 0 0
BITMAP
C3
FF
DB
18
18
FF
DB
18
18
1E
1B
1B
0E
ENDCHAR
STARTCHAR a2c8
ENCODING 4733
SWIDTH 480 0
DWIDTH 8 0
BBX 8 13 0 0
BITMAP
C6
FE
30
30
18
18
FF
DB
18
18
18
18
18
ENDCHAR
STARTCHAR a2c9
ENCODING 4734
SWIDTH 480 0
DWIDTH 8 0
BBX 8 13 0 0
BITMAP
DB
E7
24
18
18
18
FF
DB
18
18
18
18
18
ENDCHAR
STARTCHAR a2ca
ENCODING 4735
SWIDTH 480 0
DWIDTH 8 0
BBX 8 13 0 0
BITMAP
C3
FF
DB
18
18
FF
DB
18
18
18
7F
C3
03
ENDCHAR
STARTCHAR a1b6
ENCODING 4736
SWIDTH 480 0
DWIDTH 8 0
BBX 7 12 0 1
BITMAP
18
18
F8
18
1E
06
06
06
06
06
06
06
ENDCHAR
STARTCHAR a1b7
ENCODING 4739
SWIDTH 480 0
DWIDTH 8 0
BBX 7 12 0 1
BITMAP
18
18
F8
18
1E
06
06
06
06
06
FC
80
ENDCHAR
STARTCHAR a1b8
ENCODING 4741
SWIDTH 480 0
DWIDTH 8 0
BBX 7 12 1 1
BITMAP
18
78
D8
98
1E
06
06
06
06
06
06
06
ENDCHAR
STARTCHAR a1e2
ENCODING 4747
SWIDTH 480 0
DWIDTH 8 0
BBX 8 12 0 1
BITMAP
20
20
60
B8
AC
06
06
06
0C
7E
C3
C3
ENDCHAR
STARTCHAR 013e
ENCODING 4750
SWIDTH 480 0
DWIDTH 8 0
BBX 0 0 0 0
BITMAP
ENDCHAR
STARTCHAR 013e
ENCODING 4751
SWIDTH 480 0
DWIDTH 8 0
BBX 0 0 0 0
BITMAP
ENDCHAR
STARTCHAR a2cb
ENCODING 4752
SWIDTH 480 0
DWIDTH 8 0
BBX 5 12 1 1
BITMAP
C0
C0
C0
C0
70
18
18
30
30
60
60
60
ENDCHAR
STARTCHAR a2cc
ENCODING 4753
SWIDTH 480 0
DWIDTH 8 0
BBX 8 12 0 1
BITMAP
C0
C0
C0
C0
70
18
1E
37
30
60
60
60
ENDCHAR
STARTCHAR a2cd
ENCODING 4754
SWIDTH 480 0
DWIDTH 8 0
BBX 7 12 0 1
BITMAP
C0
C0
C0
C0
70
18
18
30
30
60
7C
0E
ENDCHAR
STARTCHAR a2ce
ENCODING 4755
SWIDTH 480 0
DWIDTH 8 0
BBX 7 12 0 1
BITMAP
3C
66
C6
C0
C0
C0
60
3C
0C
0C
0C
0C
ENDCHAR
STARTCHAR a2cf
ENCODING 4756
SWIDTH 480 0
DWIDTH 8 0
BBX 6 12 0 1
BITMAP
C0
C0
C0
C0
70
18
18
30
30
78
6C
38
ENDCHAR
STARTCHAR a2d0
ENCODING 4757
SWIDTH 480 0
DWIDTH 8 0
BBX 6 12 0 1
BITMAP
78
CC
0C
18
30
38
0C
0C
18
30
30
30
ENDCHAR
STARTCHAR a2d1
ENCODING 4758
SWIDTH 480 0
DWIDTH 8 0
BBX 8 12 0 1
BITMAP
06
3D
65
C3
C0
C0
60
3C
06
06
06
06
ENDCHAR
STARTCHAR a2d2
ENCODING 4759
SWIDTH 480 0
DWIDTH 8 0
BBX 8 12 0 0
BITMAP
3E
66
C3
C0
C0
60
38
0C
0C
0C
37
23
ENDCHAR
STARTCHAR a2d3
ENCODING 4760
SWIDTH 480 0
DWIDTH 8 0
BBX 7 12 0 1
BITMAP
C6
FE
30
30
38
0C
0C
18
18
30
30
30
ENDCHAR
STARTCHAR a2d4
ENCODING 4761
SWIDTH 480 0
DWIDTH 8 0
BBX 8 12 0 1
BITMAP
C6
FE
30
30
38
0C
0F
1B
18
30
30
30
ENDCHAR
STARTCHAR a2d5
ENCODING 4762
SWIDTH 480 0
DWIDTH 8 0
BBX 8 12 0 1
BITMAP
C6
FE
30
30
38
0C
0C
18
18
30
3E
07
ENDCHAR
STARTCHAR a2d6
ENCODING 4763
SWIDTH 480 0
DWIDTH 8 0
BBX 7 12 0 1
BITMAP
C6
FE
18
66
C6
C0
C0
60
3C
0C
0C
0C
ENDCHAR
STARTCHAR a2d7
ENCODING 4765
SWIDTH 480 0
DWIDTH 8 0
BBX 6 13 0 1
BITMAP
84
CC
30
F8
8C
18
30
0C
0C
18
18
30
30
ENDCHAR
STARTCHAR a2d8
ENCODING 4766
SWIDTH 480 0
DWIDTH 8 0
BBX 8 13 0 1
BITMAP
C6
FE
30
37
7D
C5
C7
C0
C0
7C
0C
0C
0C
ENDCHAR
STARTCHAR a2d9
ENCODING 4768
SWIDTH 480 0
DWIDTH 8 0
BBX 6 12 0 1
BITMAP
C0
C0
F0
30
60
F8
CC
CC
CC
CC
CC
CC
ENDCHAR
STARTCHAR a2da
ENCODING 4769
SWIDTH 480 0
DWIDTH 8 0
BBX 8 12 0 1
BITMAP
C0
C0
F0
30
60
F8
CC
CF
CD
CC
CC
CC
ENDCHAR
STARTCHAR a2db
ENCODING 4770
SWIDTH 480 0
DWIDTH 8 0
BBX 8 13 0 0
BITMAP
C0
C0
F0
30
60
F8
CC
CC
CC
CC
CC
CF
03
ENDCHAR
STARTCHAR a2dc
ENCODING 4772
SWIDTH 480 0
DWIDTH 8 0
BBX 8 12 0 1
BITMAP
C0
C0
F0
30
60
F8
CC
CC
CC
CF
CD
CF
ENDCHAR
STARTCHAR a2dd
ENCODING 4773
SWIDTH 480 0
DWIDTH 8 0
BBX 6 12 0 1
BITMAP
C0
C0
60
60
30
60
F8
CC
CC
CC
CC
CC
ENDCHAR
STARTCHAR a2de
ENCODING 4774
SWIDTH 480 0
DWIDTH 8 0
BBX 6 12 0 1
BITMAP
C0
C0
F0
30
60
F8
CC
CC
CC
CC
C0
C0
ENDCHAR
STARTCHAR a2df
ENCODING 4776
SWIDTH 480 0
DWIDTH 8 0
BBX 6 12 0 1
BITMAP
C0
C0
C0
78
4C
CC
CC
CC
CC
CC
CC
CC
ENDCHAR
STARTCHAR a2e0
ENCODING 4777
SWIDTH 480 0
DWIDTH 8 0
BBX 8 12 0 1
BITMAP
C0
C0
C0
78
4C
CC
CC
CF
CD
CC
CC
CC
ENDCHAR
STARTCHAR a2e1
ENCODING 4778
SWIDTH 480 0
DWIDTH 8 0
BBX 8 13 0 0
BITMAP
C0
C0
C0
78
4C
CC
CC
CC
CC
CC
CC
CF
03
ENDCHAR
STARTCHAR a2e2
ENCODING 4779
SWIDTH 480 0
DWIDTH 8 0
BBX 6 12 0 1
BITMAP
C0
C0
C0
78
4C
CC
CC
CC
CC
0C
0C
0C
ENDCHAR
STARTCHAR a2e3
ENCODING 4780
SWIDTH 480 0
DWIDTH 8 0
BBX 8 12 0 1
BITMAP
C0
C0
C0
78
4C
CC
CC
CC
CC
CF
CD
CF
ENDCHAR
STARTCHAR a2e4
ENCODING 4781
SWIDTH 480 0
DWIDTH 8 0
BBX 7 12 0 1
BITMAP
C0
C0
C0
7C
C6
C6
66
66
C6
C6
C6
C6
ENDCHAR
STARTCHAR a2e5
ENCODING 4782
SWIDTH 480 0
DWIDTH 8 0
BBX 6 12 0 1
BITMAP
C0
C0
C0
78
4C
CC
CC
CC
CC
C0
C0
C0
ENDCHAR
STARTCHAR a2e6
ENCODING 4783
SWIDTH 480 0
DWIDTH 8 0
BBX 8 12 0 1
BITMAP
C0
C0
C0
78
4C
CC
CC
CC
0C
0C
37
63
ENDCHAR
STARTCHAR 00a2
ENCODING 4784
SWIDTH 480 0
DWIDTH 8 0
BBX 8 11 0 -1
BITMAP
80
87
BD
67
66
66
66
66
66
66
66
ENDCHAR
STARTCHAR 013e
ENCODING 4785
SWIDTH 480 0
DWIDTH 8 0
BBX 0 0 0 0
BITMAP
ENDCHAR
STARTCHAR 00a3
ENCODING 4786
SWIDTH 480 0
DWIDTH 8 0
BBX 8 11 0 -1
BITMAP
80
80
B8
64
64
65
65
67
65
65
64
ENDCHAR
STARTCHAR 00a4
ENCODING 4787
SWIDTH 480 0
DWIDTH 8 0
BBX 8 11 0 -1
BITMAP
80
80
BC
66
66
66
66
06
06
1F
11
ENDCHAR
STARTCHAR 00a5
ENCODING 4788
SWIDTH 480 0
DWIDTH 8 0
BBX 8 11 0 -1
BITMAP
80
80
BC
66
66
66
06
07
05
07
1C
ENDCHAR
STARTCHAR 00a6
ENCODING 4789
SWIDTH 480 0
DWIDTH 8 0
BBX 8 11 0 -1
BITMAP
80
81
B9
67
65
65
64
64
64
64
64
ENDCHAR
STARTCHAR 013e
ENCODING 4790
SWIDTH 480 0
DWIDTH 8 0
BBX 0 0 0 0
BITMAP
ENDCHAR
STARTCHAR 013e
ENCODING 4791
SWIDTH 480 0
DWIDTH 8 0
BBX 0 0 0 0
BITMAP
ENDCHAR
STARTCHAR a1b9
ENCODING 4792
SWIDTH 480 0
DWIDTH 8 0
BBX 8 13 0 1
BITMAP
FC
B4
30
30
1E
13
33
33
33
33
33
33
33
ENDCHAR
STARTCHAR 00a8
ENCODING 4793
SWIDTH 480 0
DWIDTH 8 0
BBX 8 11 0 -1
BITMAP
30
E0
9C
66
66
66
67
67
66
66
66
ENDCHAR
STARTCHAR 00a9
ENCODING 4794
SWIDTH 480 0
DWIDTH 8 0
BBX 8 11 0 -1
BITMAP
30
E0
9C
66
66
66
66
66
66
66
67
ENDCHAR
STARTCHAR 00aa
ENCODING 4795
SWIDTH 480 0
DWIDTH 8 0
BBX 7 11 0 -1
BITMAP
30
E0
9C
66
66
66
66
06
06
06
06
ENDCHAR
STARTCHAR 00ab
ENCODING 4796
SWIDTH 480 0
DWIDTH 8 0
BBX 8 11 0 -1
BITMAP
30
E0
9C
66
66
66
66
66
67
65
67
ENDCHAR
STARTCHAR 00ac
ENCODING 4797
SWIDTH 480 0
DWIDTH 8 0
BBX 8 11 0 -1
BITMAP
30
E0
9E
33
33
33
1B
1B
1B
1B
1B
ENDCHAR
STARTCHAR 00ad
ENCODING 4798
SWIDTH 480 0
DWIDTH 8 0
BBX 7 11 0 -1
BITMAP
30
E0
9C
66
66
66
66
66
60
60
60
ENDCHAR
STARTCHAR 013e
ENCODING 4799
SWIDTH 480 0
DWIDTH 8 0
BBX 0 0 0 0
BITMAP
ENDCHAR
STARTCHAR 00ae
ENCODING 4800
SWIDTH 480 0
DWIDTH 8 0
BBX 8 11 0 -1
BITMAP
30
E0
9F
65
67
66
66
66
66
66
66
ENDCHAR
STARTCHAR 013e
ENCODING 4801
SWIDTH 480 0
DWIDTH 8 0
BBX 0 0 0 0
BITMAP
ENDCHAR
STARTCHAR 00af
ENCODING 4802
SWIDTH 480 0
DWIDTH 8 0
BBX 8 11 0 -1
BITMAP
30
E0
98
64
65
65
67
65
65
64
64
ENDCHAR
STARTCHAR 00b0
ENCODING 4803
SWIDTH 480 0
DWIDTH 8 0
BBX 8 11 0 -1
BITMAP
30
E0
9C
66
66
66
66
06
06
1F
11
ENDCHAR
STARTCHAR 00b1
ENCODING 4804
SWIDTH 480 0
DWIDTH 8 0
BBX 8 11 0 -1
BITMAP
30
E0
9C
7C
66
66
66
0F
09
3F
60
ENDCHAR
STARTCHAR 00b2
ENCODING 4805
SWIDTH 480 0
DWIDTH 8 0
BBX 8 11 0 -1
BITMAP
30
E2
9A
66
65
65
64
64
64
64
64
ENDCHAR
STARTCHAR 013e
ENCODING 4806
SWIDTH 480 0
DWIDTH 8 0
BBX 0 0 0 0
BITMAP
ENDCHAR
STARTCHAR 013e
ENCODING 4807
SWIDTH 480 0
DWIDTH 8 0
BBX 0 0 0 0
BITMAP
ENDCHAR
STARTCHAR a2e7
ENCODING 4808
SWIDTH 480 0
DWIDTH 8 0
BBX 8 10 0 2
BITMAP
1E
7B
DB
DB
DB
DB
DB
DE
D8
60
ENDCHAR
STARTCHAR a2e8
ENCODING 4810
SWIDTH 480 0
DWIDTH 8 0
BBX 8 12 0 1
BITMAP
1E
7B
DB
DB
DB
DE
78
18
18
18
1F
03
ENDCHAR
STARTCHAR a2e9
ENCODING 4811
SWIDTH 480 0
DWIDTH 8 0
BBX 8 12 0 1
BITMAP
1E
7B
DB
DB
DB
DE
78
18
18
18
18
18
ENDCHAR
STARTCHAR a2ea
ENCODING 4812
SWIDTH 480 0
DWIDTH 8 0
BBX 8 12 0 1
BITMAP
1E
7B
DB
DB
DB
DE
78
18
1E
1B
1B
1E
ENDCHAR
STARTCHAR a2eb
ENCODING 4813
SWIDTH 480 0
DWIDTH 8 0
BBX 8 10 0 2
BITMAP
18
74
B4
B4
B7
B5
B4
B4
B8
60
ENDCHAR
STARTCHAR a2ec
ENCODING 4814
SWIDTH 480 0
DWIDTH 8 0
BBX 8 12 0 1
BITMAP
7E
DB
DB
DB
DB
7E
18
30
60
C0
C0
C0
ENDCHAR
STARTCHAR 013e
ENCODING 4815
SWIDTH 480 0
DWIDTH 8 0
BBX 0 0 0 0
BITMAP
ENDCHAR
STARTCHAR a1c9
ENCODING 4816
SWIDTH 480 0
DWIDTH 8 0
BBX 6 12 0 1
BITMAP
18
7C
6C
CC
CC
CC
CC
CC
CC
CC
D8
70
ENDCHAR
STARTCHAR a1ca
ENCODING 4817
SWIDTH 480 0
DWIDTH 8 0
BBX 8 12 0 1
BITMAP
18
7C
6C
CC
CC
CC
CF
CD
CC
CC
D8
70
ENDCHAR
STARTCHAR a1cb
ENCODING 4818
SWIDTH 480 0
DWIDTH 8 0
BBX 7 12 0 1
BITMAP
78
CC
CC
CC
CC
7C
0C
18
18
30
3E
06
ENDCHAR
STARTCHAR a1cc
ENCODING 4819
SWIDTH 480 0
DWIDTH 8 0
BBX 6 12 0 1
BITMAP
78
CC
CC
CC
CC
7C
0C
18
18
18
18
18
ENDCHAR
STARTCHAR a1ce
ENCODING 4820
SWIDTH 480 0
DWIDTH 8 0
BBX 7 12 0 1
BITMAP
78
CC
CC
CC
CC
7C
0C
18
30
3E
36
3E
ENDCHAR
STARTCHAR a1cf
ENCODING 4821
SWIDTH 480 0
DWIDTH 8 0
BBX 6 12 0 1
BITMAP
30
30
30
78
6C
CC
CC
CC
CC
CC
D8
70
ENDCHAR
STARTCHAR a1d0
ENCODING 4822
SWIDTH 480 0
DWIDTH 8 0
BBX 6 12 0 1
BITMAP
78
CC
CC
CC
CC
7C
18
30
60
C0
C0
C0
ENDCHAR
STARTCHAR 013e
ENCODING 4823
SWIDTH 480 0
DWIDTH 8 0
BBX 0 0 0 0
BITMAP
ENDCHAR
STARTCHAR a2ed
ENCODING 4824
SWIDTH 480 0
DWIDTH 8 0
BBX 6 11 0 1
BITMAP
CC
CC
CC
CC
FC
CC
CC
CC
CC
CC
CC
ENDCHAR
STARTCHAR a2ee
ENCODING 4825
SWIDTH 480 0
DWIDTH 8 0
BBX 8 11 0 1
BITMAP
CC
CC
CC
CC
FC
CF
CD
CC
CC
CC
CC
ENDCHAR
STARTCHAR a2ef
ENCODING 4826
SWIDTH 480 0
DWIDTH 8 0
BBX 8 12 0 0
BITMAP
CC
CC
CC
CC
FC
CC
CC
CC
CC
CC
CF
03
ENDCHAR
STARTCHAR a2f0
ENCODING 4827
SWIDTH 480 0
DWIDTH 8 0
BBX 6 11 0 1
BITMAP
CC
CC
CC
CC
FC
CC
CC
CC
0C
0C
0C
ENDCHAR
STARTCHAR a2f1
ENCODING 4828
SWIDTH 480 0
DWIDTH 8 0
BBX 8 11 0 1
BITMAP
CC
CC
CC
CC
FC
CC
CC
CC
CF
CD
CF
ENDCHAR
STARTCHAR a2f2
ENCODING 4829
SWIDTH 480 0
DWIDTH 8 0
BBX 8 11 0 1
BITMAP
F3
F3
33
33
3F
33
33
33
33
33
33
ENDCHAR
STARTCHAR a2f3
ENCODING 4830
SWIDTH 480 0
DWIDTH 8 0
BBX 6 11 0 1
BITMAP
CC
CC
CC
CC
FC
CC
CC
CC
C0
C0
C0
ENDCHAR
STARTCHAR a2f4
ENCODING 4831
SWIDTH 480 0
DWIDTH 8 0
BBX 8 11 0 1
BITMAP
CC
CC
CC
FC
CC
CC
CC
0C
0C
37
33
ENDCHAR
STARTCHAR a2f5
ENCODING 4832
SWIDTH 480 0
DWIDTH 8 0
BBX 7 11 0 1
BITMAP
EE
6C
6C
6C
7C
6C
6C
6C
6C
6C
6C
ENDCHAR
STARTCHAR a2f6
ENCODING 4833
SWIDTH 480 0
DWIDTH 8 0
BBX 8 11 0 1
BITMAP
EF
6C
6C
6C
7C
6F
6D
6C
6C
6C
6C
ENDCHAR
STARTCHAR a2f7
ENCODING 4835
SWIDTH 480 0
DWIDTH 8 0
BBX 7 11 0 1
BITMAP
EE
6C
6C
6C
7C
6C
6C
6C
0C
0C
0C
ENDCHAR
STARTCHAR a2f8
ENCODING 4836
SWIDTH 480 0
DWIDTH 8 0
BBX 8 11 0 1
BITMAP
EE
6C
6C
6C
7C
6C
6C
6C
6F
6D
6F
ENDCHAR
STARTCHAR a2f9
ENCODING 4837
SWIDTH 480 0
DWIDTH 8 0
BBX 8 12 0 1
BITMAP
E0
40
F7
36
36
3E
36
36
36
36
36
36
ENDCHAR
STARTCHAR a2fa
ENCODING 4838
SWIDTH 480 0
DWIDTH 8 0
BBX 7 11 0 1
BITMAP
EE
6C
6C
6C
7C
6C
6C
6C
60
60
60
ENDCHAR
STARTCHAR a2f4
ENCODING 4839
SWIDTH 480 0
DWIDTH 8 0
BBX 8 11 0 1
BITMAP
CC
CC
CC
FC
CC
CC
CC
0C
0C
37
33
ENDCHAR
STARTCHAR a2fb
ENCODING 4840
SWIDTH 480 0
DWIDTH 8 0
BBX 6 12 0 1
BITMAP
38
6C
CC
CC
CC
F8
60
60
30
30
30
30
ENDCHAR
STARTCHAR a2fc
ENCODING 4841
SWIDTH 480 0
DWIDTH 8 0
BBX 7 12 0 1
BITMAP
38
6C
CC
CC
CC
F8
60
60
3E
36
30
30
ENDCHAR
STARTCHAR a1c3
ENCODING 4842
SWIDTH 480 0
DWIDTH 8 0
BBX 8 12 0 1
BITMAP
38
6C
CC
CC
CC
F8
60
7E
36
37
37
30
ENDCHAR
STARTCHAR a2fd
ENCODING 4843
SWIDTH 480 0
DWIDTH 8 0
BBX 6 12 1 1
BITMAP
38
6C
CC
CC
F8
60
30
18
38
60
C0
C0
ENDCHAR
STARTCHAR a2fe
ENCODING 4845
SWIDTH 480 0
DWIDTH 8 0
BBX 8 12 0 1
BITMAP
38
6C
CC
CC
D8
F0
63
33
1E
60
C0
C0
ENDCHAR
STARTCHAR a3a1
ENCODING 4846
SWIDTH 480 0
DWIDTH 8 0
BBX 8 12 0 1
BITMAP
38
6C
CF
CD
CC
F8
60
60
30
30
30
30
ENDCHAR
STARTCHAR 013e
ENCODING 4847
SWIDTH 480 0
DWIDTH 8 0
BBX 0 0 0 0
BITMAP
ENDCHAR
STARTCHAR a3a2
ENCODING 4848
SWIDTH 480 0
DWIDTH 8 0
BBX 6 12 0 1
BITMAP
38
6C
CC
CC
CC
CC
F8
60
3C
CC
CC
CC
ENDCHAR
STARTCHAR a3a3
ENCODING 4849
SWIDTH 480 0
DWIDTH 8 0
BBX 8 12 0 1
BITMAP
38
6C
CC
CC
CC
CC
F8
60
3C
CF
CD
CC
ENDCHAR
STARTCHAR a3a4
ENCODING 4850
SWIDTH 480 0
DWIDTH 8 0
BBX 8 13 0 0
BITMAP
38
6C
CC
CC
CC
CC
F8
60
3C
CC
CC
CF
03
ENDCHAR
STARTCHAR a3a5
ENCODING 4851
SWIDTH 480 0
DWIDTH 8 0
BBX 6 12 0 1
BITMAP
38
6C
CC
CC
CC
CC
F8
60
3C
CC
CC
0C
ENDCHAR
STARTCHAR a3a6
ENCODING 4852
SWIDTH 480 0
DWIDTH 8 0
BBX 8 12 0 1
BITMAP
38
6C
CC
CC
CC
CC
F8
60
3C
CF
CD
CF
ENDCHAR
STARTCHAR a3a7
ENCODING 4853
SWIDTH 480 0
DWIDTH 8 0
BBX 8 12 0 1
BITMAP
38
6C
CC
CF
CD
CC
F8
60
3C
CC
CC
CC
ENDCHAR
STARTCHAR a3a8
ENCODING 4854
SWIDTH 480 0
DWIDTH 8 0
BBX 7 12 0 1
BITMAP
38
6C
CC
CC
CC
CC
F8
60
3C
CE
C6
C0
ENDCHAR
STARTCHAR a3a9
ENCODING 4855
SWIDTH 480 0
DWIDTH 8 0
BBX 8 13 0 0
BITMAP
38
6C
CC
CC
CC
CC
F8
60
3C
CC
8C
33
33
ENDCHAR
STARTCHAR a3a2
ENCODING 4856
SWIDTH 480 0
DWIDTH 8 0
BBX 6 12 0 1
BITMAP
38
6C
CC
CC
CC
CC
F8
60
3C
CC
CC
CC
ENDCHAR
STARTCHAR a3a3
ENCODING 4857
SWIDTH 480 0
DWIDTH 8 0
BBX 8 12 0 1
BITMAP
38
6C
CC
CC
CC
CC
F8
60
3C
CF
CD
CC
ENDCHAR
STARTCHAR a3a4
ENCODING 4858
SWIDTH 480 0
DWIDTH 8 0
BBX 8 13 0 0
BITMAP
38
6C
CC
CC
CC
CC
F8
60
3C
CC
CC
CF
03
ENDCHAR
STARTCHAR a3a5
ENCODING 4859
SWIDTH 480 0
DWIDTH 8 0
BBX 6 12 0 1
BITMAP
38
6C
CC
CC
CC
CC
F8
60
3C
CC
CC
0C
ENDCHAR
STARTCHAR a3a6
ENCODING 4860
SWIDTH 480 0
DWIDTH 8 0
BBX 8 12 0 1
BITMAP
38
6C
CC
CC
CC
CC
F8
60
3C
CF
CD
CF
ENDCHAR
STARTCHAR a3a7
ENCODING 4861
SWIDTH 480 0
DWIDTH 8 0
BBX 8 12 0 1
BITMAP
38
6C
CC
CF
CD
CC
F8
60
3C
CC
CC
CC
ENDCHAR
STARTCHAR a3a8
ENCODING 4862
SWIDTH 480 0
DWIDTH 8 0
BBX 7 12 0 1
BITMAP
38
6C
CC
CC
CC
CC
F8
60
3C
CE
C6
C0
ENDCHAR
STARTCHAR a3a9
ENCODING 4863
SWIDTH 480 0
DWIDTH 8 0
BBX 8 13 0 0
BITMAP
38
6C
CC
CC
CC
CC
F8
60
3C
CC
8C
33
33
ENDCHAR
STARTCHAR a3aa
ENCODING 4864
SWIDTH 480 0
DWIDTH 8 0
BBX 7 13 0 1
BITMAP
C6
FE
30
78
CC
CC
CC
F8
60
3C
CC
CC
CC
ENDCHAR
STARTCHAR a3ab
ENCODING 4865
SWIDTH 480 0
DWIDTH 8 0
BBX 8 13 0 1
BITMAP
C6
FE
30
78
CC
CC
CC
F8
60
3C
CF
CD
CC
ENDCHAR
STARTCHAR a3ac
ENCODING 4866
SWIDTH 480 0
DWIDTH 8 0
BBX 8 14 0 0
BITMAP
C6
FE
30
78
CC
CC
CC
F8
60
3C
CC
CC
CF
03
ENDCHAR
STARTCHAR a3ad
ENCODING 4867
SWIDTH 480 0
DWIDTH 8 0
BBX 7 13 0 1
BITMAP
C6
FE
30
78
CC
CC
CC
F8
60
3C
CC
CC
0C
ENDCHAR
STARTCHAR a3ae
ENCODING 4868
SWIDTH 480 0
DWIDTH 8 0
BBX 8 13 0 1
BITMAP
C6
FE
30
78
CC
CC
CC
F8
60
3C
CF
CD
CF
ENDCHAR
STARTCHAR a3af
ENCODING 4869
SWIDTH 480 0
DWIDTH 8 0
BBX 8 13 0 1
BITMAP
C6
FE
30
78
CC
CF
CD
F8
60
3C
CC
CC
CC
ENDCHAR
STARTCHAR a3b0
ENCODING 4870
SWIDTH 480 0
DWIDTH 8 0
BBX 7 13 0 1
BITMAP
C6
FE
30
78
CC
CC
CC
F8
60
3C
CC
C0
C0
ENDCHAR
STARTCHAR a1c0
ENCODING 4871
SWIDTH 480 0
DWIDTH 8 0
BBX 7 14 0 0
BITMAP
C6
FE
30
78
CC
CC
F8
60
3C
CC
CC
0C
7E
42
ENDCHAR
STARTCHAR a3b1
ENCODING 4872
SWIDTH 480 0
DWIDTH 8 0
BBX 6 12 0 1
BITMAP
78
CC
CC
0C
0C
18
18
18
30
30
30
30
ENDCHAR
STARTCHAR a3b2
ENCODING 4873
SWIDTH 480 0
DWIDTH 8 0
BBX 8 12 0 1
BITMAP
78
CC
CC
0C
0C
1F
19
18
30
30
30
30
ENDCHAR
STARTCHAR a3b3
ENCODING 4874
SWIDTH 480 0
DWIDTH 8 0
BBX 7 13 0 0
BITMAP
78
CC
CC
0C
0C
18
18
18
30
30
36
3E
06
ENDCHAR
STARTCHAR a3b4
ENCODING 4875
SWIDTH 480 0
DWIDTH 8 0
BBX 7 12 0 1
BITMAP
3C
66
66
06
06
06
06
06
1C
F0
C0
C0
ENDCHAR
STARTCHAR a3b5
ENCODING 4876
SWIDTH 480 0
DWIDTH 8 0
BBX 6 12 0 1
BITMAP
78
CC
CC
0C
0C
18
18
18
30
3C
34
3C
ENDCHAR
STARTCHAR a3b6
ENCODING 4877
SWIDTH 480 0
DWIDTH 8 0
BBX 7 12 0 1
BITMAP
7C
E6
A6
E6
06
0C
0C
0C
18
18
18
18
ENDCHAR
STARTCHAR a3b7
ENCODING 4878
SWIDTH 480 0
DWIDTH 8 0
BBX 6 12 0 1
BITMAP
30
30
78
CC
CC
0C
18
18
18
30
30
30
ENDCHAR
STARTCHAR a3b8
ENCODING 4879
SWIDTH 480 0
DWIDTH 8 0
BBX 6 12 0 0
BITMAP
78
CC
CC
0C
18
18
18
30
30
30
FC
84
ENDCHAR
STARTCHAR 00f8
ENCODING 4880
SWIDTH 480 0
DWIDTH 8 0
BBX 8 10 0 -1
BITMAP
F0
18
18
1F
19
1F
18
18
18
18
ENDCHAR
STARTCHAR 013e
ENCODING 4881
SWIDTH 480 0
DWIDTH 8 0
BBX 0 0 0 0
BITMAP
ENDCHAR
STARTCHAR 00f9
ENCODING 4882
SWIDTH 480 0
DWIDTH 8 0
BBX 7 10 0 -1
BITMAP
F0
18
18
1A
1A
1E
1A
1A
18
18
ENDCHAR
STARTCHAR 00fa
ENCODING 4883
SWIDTH 480 0
DWIDTH 8 0
BBX 7 11 0 -1
BITMAP
F0
D8
18
7C
66
06
06
06
06
06
06
ENDCHAR
STARTCHAR 00fb
ENCODING 4884
SWIDTH 480 0
DWIDTH 8 0
BBX 7 11 0 -1
BITMAP
F0
18
18
18
1E
12
1E
30
60
C0
C0
ENDCHAR
STARTCHAR 00fc
ENCODING 4885
SWIDTH 480 0
DWIDTH 8 0
BBX 7 10 0 -1
BITMAP
F2
1A
1E
1A
1A
18
18
18
18
18
ENDCHAR
STARTCHAR 013e
ENCODING 4886
SWIDTH 480 0
DWIDTH 8 0
BBX 0 0 0 0
BITMAP
ENDCHAR
STARTCHAR 013e
ENCODING 4887
SWIDTH 480 0
DWIDTH 8 0
BBX 0 0 0 0
BITMAP
ENDCHAR
STARTCHAR a3b1
ENCODING 4888
SWIDTH 480 0
DWIDTH 8 0
BBX 6 12 0 1
BITMAP
78
CC
CC
0C
0C
18
18
18
30
30
30
30
ENDCHAR
STARTCHAR a3b2
ENCODING 4889
SWIDTH 480 0
DWIDTH 8 0
BBX 8 12 0 1
BITMAP
78
CC
CC
0C
0C
1F
19
18
30
30
30
30
ENDCHAR
STARTCHAR a3b3
ENCODING 4890
SWIDTH 480 0
DWIDTH 8 0
BBX 7 13 0 0
BITMAP
78
CC
CC
0C
0C
18
18
18
30
30
36
3E
06
ENDCHAR
STARTCHAR a3b4
ENCODING 4891
SWIDTH 480 0
DWIDTH 8 0
BBX 7 12 0 1
BITMAP
3C
66
66
06
06
06
06
06
1C
F0
C0
C0
ENDCHAR
STARTCHAR a3b5
ENCODING 4892
SWIDTH 480 0
DWIDTH 8 0
BBX 6 12 0 1
BITMAP
78
CC
CC
0C
0C
18
18
18
30
3C
34
3C
ENDCHAR
STARTCHAR a3b6
ENCODING 4893
SWIDTH 480 0
DWIDTH 8 0
BBX 7 12 0 1
BITMAP
7C
E6
A6
E6
06
0C
0C
0C
18
18
18
18
ENDCHAR
STARTCHAR a3b7
ENCODING 4894
SWIDTH 480 0
DWIDTH 8 0
BBX 6 12 0 1
BITMAP
30
30
78
CC
CC
0C
18
18
18
30
30
30
ENDCHAR
STARTCHAR 013e
ENCODING 4895
SWIDTH 480 0
DWIDTH 8 0
BBX 0 0 0 0
BITMAP
ENDCHAR
STARTCHAR a3b9
ENCODING 4896
SWIDTH 480 0
DWIDTH 8 0
BBX 5 11 0 1
BITMAP
38
68
A8
A8
A8
A8
A8
A8
A8
A8
A8
ENDCHAR
STARTCHAR a3ba
ENCODING 4897
SWIDTH 480 0
DWIDTH 8 0
BBX 7 11 0 1
BITMAP
38
68
A8
A8
A8
AE
AA
A8
A8
A8
A8
ENDCHAR
STARTCHAR a3bb
ENCODING 4898
SWIDTH 480 0
DWIDTH 8 0
BBX 7 12 0 0
BITMAP
38
68
A8
A8
A8
A8
A8
A8
A8
A8
AE
02
ENDCHAR
STARTCHAR a3bc
ENCODING 4899
SWIDTH 480 0
DWIDTH 8 0
BBX 5 11 0 1
BITMAP
38
68
A8
A8
A8
A8
A8
08
08
08
08
ENDCHAR
STARTCHAR a3bd
ENCODING 4900
SWIDTH 480 0
DWIDTH 8 0
BBX 7 11 0 1
BITMAP
38
68
A8
A8
A8
A8
A8
AE
AA
AA
AE
ENDCHAR
STARTCHAR a3be
ENCODING 4901
SWIDTH 480 0
DWIDTH 8 0
BBX 7 11 0 1
BITMAP
7C
92
92
92
92
18
08
08
08
08
08
ENDCHAR
STARTCHAR a3bf
ENCODING 4902
SWIDTH 480 0
DWIDTH 8 0
BBX 5 11 0 1
BITMAP
38
68
A8
A8
A8
A8
A8
80
80
80
80
ENDCHAR
STARTCHAR a1bf
ENCODING 4903
SWIDTH 480 0
DWIDTH 8 0
BBX 6 11 0 1
BITMAP
38
68
A8
A8
A8
A8
A8
08
08
3C
24
ENDCHAR
STARTCHAR a3c0
ENCODING 4904
SWIDTH 480 0
DWIDTH 8 0
BBX 7 11 0 1
BITMAP
3E
72
92
92
92
92
92
92
92
DA
DA
ENDCHAR
STARTCHAR a3c1
ENCODING 4905
SWIDTH 480 0
DWIDTH 8 0
BBX 8 11 0 1
BITMAP
3E
72
92
92
92
93
92
92
92
DA
DA
ENDCHAR
STARTCHAR a3c2
ENCODING 4906
SWIDTH 480 0
DWIDTH 8 0
BBX 8 11 0 1
BITMAP
3E
72
92
92
92
92
92
92
92
DA
DB
ENDCHAR
STARTCHAR a3c3
ENCODING 4907
SWIDTH 480 0
DWIDTH 8 0
BBX 7 11 0 1
BITMAP
7E
92
92
92
92
DA
DA
02
02
02
02
ENDCHAR
STARTCHAR a1c2
ENCODING 4908
SWIDTH 480 0
DWIDTH 8 0
BBX 8 9 0 2
BITMAP
7C
92
92
92
92
92
92
DD
DA
ENDCHAR
STARTCHAR a3c4
ENCODING 4909
SWIDTH 480 0
DWIDTH 8 0
BBX 8 11 0 1
BITMAP
7C
92
92
D3
D3
10
08
08
08
0C
0C
ENDCHAR
STARTCHAR a3c5
ENCODING 4910
SWIDTH 480 0
DWIDTH 8 0
BBX 8 11 0 1
BITMAP
3E
72
92
92
9B
9B
80
80
80
C0
C0
ENDCHAR
STARTCHAR a2c2
ENCODING 4911
SWIDTH 480 0
DWIDTH 8 0
BBX 8 11 0 1
BITMAP
7E
92
92
92
92
DA
DA
02
02
0F
09
ENDCHAR
STARTCHAR a1a9
ENCODING 4912
SWIDTH 480 0
DWIDTH 8 0
BBX 6 12 0 1
BITMAP
30
30
78
CC
CC
CC
78
30
78
CC
CC
CC
ENDCHAR
STARTCHAR a1aa
ENCODING 4913
SWIDTH 480 0
DWIDTH 8 0
BBX 8 12 0 1
BITMAP
30
30
78
CC
CC
CC
78
30
78
CF
CD
CC
ENDCHAR
STARTCHAR a3c6
ENCODING 4914
SWIDTH 480 0
DWIDTH 8 0
BBX 8 13 0 0
BITMAP
30
30
78
CC
CC
CC
78
30
78
CC
CC
CF
03
ENDCHAR
STARTCHAR a3c7
ENCODING 4915
SWIDTH 480 0
DWIDTH 8 0
BBX 6 12 0 1
BITMAP
30
30
78
CC
CC
CC
78
30
78
CC
CC
0C
ENDCHAR
STARTCHAR a3c8
ENCODING 4916
SWIDTH 480 0
DWIDTH 8 0
BBX 8 12 0 1
BITMAP
30
30
78
CC
CC
CC
78
30
7C
CF
CD
CF
ENDCHAR
STARTCHAR a3c9
ENCODING 4917
SWIDTH 480 0
DWIDTH 8 0
BBX 8 12 0 1
BITMAP
30
30
78
CC
CF
CD
78
30
78
CC
CC
CC
ENDCHAR
STARTCHAR a3ca
ENCODING 4918
SWIDTH 480 0
DWIDTH 8 0
BBX 6 12 0 1
BITMAP
30
30
78
CC
CC
CC
78
30
78
CC
CC
C0
ENDCHAR
STARTCHAR PWa
ENCODING 4919
SWIDTH 480 0
DWIDTH 8 0
BBX 8 12 0 -2
BITMAP
30
30
78
CC
CC
CC
78
30
78
CC
DF
33
ENDCHAR
STARTCHAR a1d1
ENCODING 4920
SWIDTH 480 0
DWIDTH 8 0
BBX 6 11 0 1
BITMAP
78
CC
CC
CC
78
30
78
CC
CC
CC
CC
ENDCHAR
STARTCHAR a1d2
ENCODING 4921
SWIDTH 480 0
DWIDTH 8 0
BBX 8 11 0 1
BITMAP
78
CC
CC
CC
78
30
78
CC
CF
CD
CC
ENDCHAR
STARTCHAR a1d3
ENCODING 4922
SWIDTH 480 0
DWIDTH 8 0
BBX 8 11 0 1
BITMAP
78
CC
CC
CC
78
30
78
CC
CC
CC
CF
ENDCHAR
STARTCHAR a1d4
ENCODING 4923
SWIDTH 480 0
DWIDTH 8 0
BBX 6 11 0 1
BITMAP
78
CC
CC
CC
78
30
78
CC
CC
0C
0C
ENDCHAR
STARTCHAR a1d5
ENCODING 4924
SWIDTH 480 0
DWIDTH 8 0
BBX 8 10 0 2
BITMAP
78
CC
CC
CC
78
30
78
CF
CD
CF
ENDCHAR
STARTCHAR a1d6
ENCODING 4925
SWIDTH 480 0
DWIDTH 8 0
BBX 8 11 0 1
BITMAP
78
CC
CF
CC
78
30
78
CC
CC
CC
CC
ENDCHAR
STARTCHAR a1d7
ENCODING 4926
SWIDTH 480 0
DWIDTH 8 0
BBX 6 11 0 1
BITMAP
78
CC
CC
CC
78
30
78
CC
CC
C0
C0
ENDCHAR
STARTCHAR a1be
ENCODING 4927
SWIDTH 480 0
DWIDTH 8 0
BBX 8 12 0 1
BITMAP
78
CC
CC
CC
78
30
78
CC
CC
0C
3F
21
ENDCHAR
STARTCHAR a3cb
ENCODING 4928
SWIDTH 480 0
DWIDTH 8 0
BBX 6 12 0 1
BITMAP
18
7C
6C
CC
CC
FC
CC
CC
CC
CC
D8
70
ENDCHAR
STARTCHAR a3cc
ENCODING 4929
SWIDTH 480 0
DWIDTH 8 0
BBX 8 12 0 1
BITMAP
18
7C
6C
CC
CC
FC
CF
CD
CC
CC
D8
70
ENDCHAR
STARTCHAR a3cd
ENCODING 4930
SWIDTH 480 0
DWIDTH 8 0
BBX 7 12 0 1
BITMAP
78
CC
CC
FC
CC
7C
0C
18
18
30
3E
06
ENDCHAR
STARTCHAR a3ce
ENCODING 4931
SWIDTH 480 0
DWIDTH 8 0
BBX 6 12 0 1
BITMAP
78
CC
CC
FC
CC
7C
0C
18
18
18
18
18
ENDCHAR
STARTCHAR a3cf
ENCODING 4932
SWIDTH 480 0
DWIDTH 8 0
BBX 7 12 0 1
BITMAP
78
CC
CC
FC
CC
7C
0C
18
30
3E
36
3E
ENDCHAR
STARTCHAR a3d0
ENCODING 4933
SWIDTH 480 0
DWIDTH 8 0
BBX 6 12 0 1
BITMAP
30
30
30
78
6C
CC
CC
FC
CC
CC
D8
70
ENDCHAR
STARTCHAR a3d1
ENCODING 4934
SWIDTH 480 0
DWIDTH 8 0
BBX 6 12 0 1
BITMAP
78
CC
CC
FC
CC
7C
18
30
60
C0
C0
C0
ENDCHAR
STARTCHAR a3d2
ENCODING 4936
SWIDTH 480 0
DWIDTH 8 0
BBX 8 12 0 1
BITMAP
18
18
18
30
30
60
60
F0
D8
D8
FF
63
ENDCHAR
STARTCHAR a3d3
ENCODING 4937
SWIDTH 480 0
DWIDTH 8 0
BBX 8 12 0 1
BITMAP
18
18
18
30
60
70
D8
D8
FF
33
60
60
ENDCHAR
STARTCHAR a3d4
ENCODING 4938
SWIDTH 480 0
DWIDTH 8 0
BBX 8 12 0 1
BITMAP
18
18
18
30
30
60
60
F0
DB
DB
FF
76
ENDCHAR
STARTCHAR a3d5
ENCODING 4939
SWIDTH 480 0
DWIDTH 8 0
BBX 8 12 0 1
BITMAP
18
18
18
30
60
70
D8
D8
FF
1B
18
18
ENDCHAR
STARTCHAR a3d6
ENCODING 4940
SWIDTH 480 0
DWIDTH 8 0
BBX 8 12 0 1
BITMAP
18
18
18
30
30
60
70
D8
D8
D7
FD
67
ENDCHAR
STARTCHAR a3d7
ENCODING 4941
SWIDTH 480 0
DWIDTH 8 0
BBX 8 11 0 1
BITMAP
3E
66
C0
C0
F0
D8
D8
DF
7B
18
18
ENDCHAR
STARTCHAR a3d8
ENCODING 4942
SWIDTH 480 0
DWIDTH 8 0
BBX 8 11 0 1
BITMAP
3F
65
C5
C7
F0
D8
D8
D8
D8
FF
73
ENDCHAR
STARTCHAR a3d9
ENCODING 4943
SWIDTH 480 0
DWIDTH 8 0
BBX 8 12 0 1
BITMAP
C3
FF
18
30
60
70
D8
D8
FF
1B
18
18
ENDCHAR
STARTCHAR a3da
ENCODING 4944
SWIDTH 480 0
DWIDTH 8 0
BBX 8 12 0 1
BITMAP
FF
DB
18
18
18
18
18
18
18
18
18
18
ENDCHAR
STARTCHAR a3db
ENCODING 4945
SWIDTH 480 0
DWIDTH 8 0
BBX 8 12 0 1
BITMAP
FF
DB
18
18
18
18
1F
1B
18
18
18
18
ENDCHAR
STARTCHAR a3dc
ENCODING 4946
SWIDTH 480 0
DWIDTH 8 0
BBX 8 12 0 1
BITMAP
FF
DB
18
18
18
18
18
18
18
18
1F
03
ENDCHAR
STARTCHAR a3dd
ENCODING 4947
SWIDTH 480 0
DWIDTH 8 0
BBX 8 12 0 1
BITMAP
FF
DB
18
18
18
18
18
30
60
C0
C0
C0
ENDCHAR
STARTCHAR a3de
ENCODING 4948
SWIDTH 480 0
DWIDTH 8 0
BBX 8 12 0 1
BITMAP
FF
DB
18
18
18
18
18
18
1E
1B
1B
1E
ENDCHAR
STARTCHAR a3df
ENCODING 4949
SWIDTH 480 0
DWIDTH 8 0
BBX 8 12 0 1
BITMAP
FF
DB
18
18
1C
0C
0C
0C
0C
0C
0C
0C
ENDCHAR
STARTCHAR a3e0
ENCODING 4950
SWIDTH 480 0
DWIDTH 8 0
BBX 8 12 0 1
BITMAP
FF
DB
18
18
30
30
60
60
C0
C0
C0
C0
ENDCHAR
STARTCHAR a3dd
ENCODING 4951
SWIDTH 480 0
DWIDTH 8 0
BBX 8 12 0 -2
BITMAP
FF
DB
18
18
18
18
18
18
18
18
7F
C3
ENDCHAR
STARTCHAR 013e
ENCODING 4960
SWIDTH 480 0
DWIDTH 8 0
BBX 0 0 0 0
BITMAP
ENDCHAR
STARTCHAR 013f
ENCODING 4961
SWIDTH 480 0
DWIDTH 8 0
BBX 2 5 3 1
BITMAP
C0
C0
00
C0
C0
ENDCHAR
STARTCHAR a1db
ENCODING 4962
SWIDTH 480 0
DWIDTH 8 0
BBX 6 6 1 4
BITMAP
CC
CC
00
00
CC
CC
ENDCHAR
STARTCHAR a1cd
ENCODING 4963
SWIDTH 480 0
DWIDTH 8 0
BBX 6 9 1 3
BITMAP
FC
FC
00
00
30
30
00
30
30
ENDCHAR
STARTCHAR a2a2
ENCODING 4964
SWIDTH 480 0
DWIDTH 8 0
BBX 6 13 1 0
BITMAP
FC
FC
00
00
30
30
00
00
30
30
00
FC
FC
ENDCHAR
STARTCHAR 0143
ENCODING 4965
SWIDTH 480 0
DWIDTH 8 0
BBX 6 7 1 1
BITMAP
30
30
0C
FC
C0
30
30
ENDCHAR
STARTCHAR 0144
ENCODING 4966
SWIDTH 480 0
DWIDTH 8 0
BBX 5 7 3 1
BITMAP
C0
C0
00
78
00
C0
C0
ENDCHAR
STARTCHAR 0145
ENCODING 4967
SWIDTH 480 0
DWIDTH 8 0
BBX 2 8 3 1
BITMAP
C0
C0
00
C0
C0
00
C0
C0
ENDCHAR
STARTCHAR 0146
ENCODING 4968
SWIDTH 480 0
DWIDTH 8 0
BBX 8 9 0 1
BITMAP
18
18
C3
DB
18
DB
C3
18
18
ENDCHAR
STARTCHAR 0147
ENCODING 4969
SWIDTH 480 0
DWIDTH 8 0
BBX 8 12 0 -2
BITMAP
FE
C6
30
30
70
E8
CC
CC
78
00
FE
C6
ENDCHAR
STARTCHAR 0148
ENCODING 4970
SWIDTH 480 0
DWIDTH 8 0
BBX 8 12 0 -2
BITMAP
FF
C3
3C
76
E6
FC
E0
7C
76
3C
FF
C3
ENDCHAR
STARTCHAR 0149
ENCODING 4971
SWIDTH 480 0
DWIDTH 8 0
BBX 8 12 0 -2
BITMAP
FE
C6
00
7C
6C
60
60
60
70
00
FE
C6
ENDCHAR
STARTCHAR 014a
ENCODING 4972
SWIDTH 480 0
DWIDTH 8 0
BBX 8 12 0 -2
BITMAP
FE
C6
38
6C
6C
6C
6C
6C
38
00
FE
C6
ENDCHAR
STARTCHAR 014b
ENCODING 4973
SWIDTH 480 0
DWIDTH 8 0
BBX 8 12 0 -2
BITMAP
FF
DB
18
30
7E
C6
C0
CC
7E
00
FF
C3
ENDCHAR
STARTCHAR 014c
ENCODING 4974
SWIDTH 480 0
DWIDTH 8 0
BBX 8 12 0 -2
BITMAP
FF
C3
7C
6C
0C
18
1E
32
3E
00
FF
C3
ENDCHAR
STARTCHAR 014d
ENCODING 4975
SWIDTH 480 0
DWIDTH 8 0
BBX 8 12 0 -2
BITMAP
FF
C3
7C
6C
0C
18
18
36
3E
00
FF
C3
ENDCHAR
STARTCHAR 014e
ENCODING 4976
SWIDTH 480 0
DWIDTH 8 0
BBX 8 12 0 -2
BITMAP
FF
C3
00
FF
DB
18
18
FF
C3
00
FF
C3
ENDCHAR
STARTCHAR 014f
ENCODING 4977
SWIDTH 480 0
DWIDTH 8 0
BBX 8 12 0 -2
BITMAP
FF
C3
00
66
66
7E
66
64
38
00
FF
C3
ENDCHAR
STARTCHAR 0150
ENCODING 4978
SWIDTH 480 0
DWIDTH 8 0
BBX 6 12 1 -2
BITMAP
FC
CC
00
30
30
30
30
30
30
00
FC
CC
ENDCHAR
STARTCHAR 0151
ENCODING 4979
SWIDTH 480 0
DWIDTH 8 0
BBX 8 12 0 -2
BITMAP
FF
C3
00
7E
5A
30
3C
66
66
00
FF
C3
ENDCHAR
STARTCHAR 0152
ENCODING 4980
SWIDTH 480 0
DWIDTH 8 0
BBX 8 12 0 -2
BITMAP
FF
C3
00
6E
DB
DB
DB
DB
73
00
FF
C3
ENDCHAR
STARTCHAR 0153
ENCODING 4981
SWIDTH 480 0
DWIDTH 8 0
BBX 8 12 0 -2
BITMAP
FF
C3
00
DB
DB
DF
DB
73
03
00
FF
C3
ENDCHAR
STARTCHAR 0154
ENCODING 4982
SWIDTH 480 0
DWIDTH 8 0
BBX 8 12 0 -2
BITMAP
FF
C3
00
66
66
66
3C
0C
0C
0C
FF
C3
ENDCHAR
STARTCHAR 0155
ENCODING 4983
SWIDTH 480 0
DWIDTH 8 0
BBX 8 12 0 -2
BITMAP
FF
C3
00
FF
DB
1C
0C
7F
63
00
FF
C3
ENDCHAR
STARTCHAR 0156
ENCODING 4984
SWIDTH 480 0
DWIDTH 8 0
BBX 8 12 0 -2
BITMAP
FF
C3
00
3F
65
C7
C0
C0
7E
06
FF
C3
ENDCHAR
STARTCHAR 0157
ENCODING 4985
SWIDTH 480 0
DWIDTH 8 0
BBX 8 12 0 -2
BITMAP
FE
C6
00
FE
EE
6C
6C
6C
6C
00
FE
C6
ENDCHAR
STARTCHAR 0158
ENCODING 4986
SWIDTH 480 0
DWIDTH 8 0
BBX 8 12 0 -2
BITMAP
FF
C3
78
6C
08
1C
06
0C
18
18
FF
C3
ENDCHAR
STARTCHAR 0159
ENCODING 4987
SWIDTH 480 0
DWIDTH 8 0
BBX 8 12 0 -2
BITMAP
FF
C3
3C
66
66
2C
30
30
30
30
FF
C3
ENDCHAR
STARTCHAR 015a
ENCODING 4988
SWIDTH 480 0
DWIDTH 8 0
BBX 8 12 0 -2
BITMAP
FF
C3
66
99
99
AA
CC
CC
CC
CC
FF
C3
ENDCHAR
STARTCHAR 013e
ENCODING 4989
SWIDTH 480 0
DWIDTH 8 0
BBX 0 0 0 0
BITMAP
ENDCHAR
STARTCHAR 013e
ENCODING 4990
SWIDTH 480 0
DWIDTH 8 0
BBX 0 0 0 0
BITMAP
ENDCHAR
STARTCHAR 013e
ENCODING 4991
SWIDTH 480 0
DWIDTH 8 0
BBX 0 0 0 0
BITMAP
ENDCHAR
STARTCHAR 015c
ENCODING 4992
SWIDTH 480 0
DWIDTH 8 0
BBX 4 10 2 -1
BITMAP
60
60
00
60
60
60
F0
F0
F0
60
ENDCHAR
STARTCHAR 015d
ENCODING 4993
SWIDTH 480 0
DWIDTH 8 0
BBX 2 2 3 0
BITMAP
C0
C0
ENDCHAR
STARTCHAR 015e
ENCODING 4994
SWIDTH 480 0
DWIDTH 8 0
BBX 8 7 0 1
BITMAP
1B
36
6C
D8
6C
36
1B
ENDCHAR
STARTCHAR 015f
ENCODING 4995
SWIDTH 480 0
DWIDTH 8 0
BBX 8 7 0 1
BITMAP
D8
6C
36
1B
36
6C
D8
ENDCHAR
STARTCHAR 0160
ENCODING 4996
SWIDTH 480 0
DWIDTH 8 0
BBX 7 10 1 -1
BITMAP
7C
C6
C6
0C
18
30
30
00
30
30
ENDCHAR
ENDFONT
